<svg width="22" height="25" viewBox="0 0 22 25" fill="none" xmlns="http://www.w3.org/2000/svg">
<path d="M18.8571 2.09082H3.14286C2.57454 2.09082 2.02949 2.31659 1.62763 2.71845C1.22576 3.12031 1 3.66536 1 4.23368L1 19.948C1 20.5163 1.22576 21.0613 1.62763 21.4632C2.02949 21.8651 2.57454 22.0908 3.14286 22.0908H9.27009V15.2913H6.45759V12.0908H9.27009V9.65154C9.27009 6.87698 10.9219 5.34439 13.4518 5.34439C14.6634 5.34439 15.9304 5.56046 15.9304 5.56046V8.28368H14.5344C13.1589 8.28368 12.7299 9.13725 12.7299 10.0127V12.0908H15.8004L15.3094 15.2913H12.7299V22.0908H18.8571C19.4255 22.0908 19.9705 21.8651 20.3724 21.4632C20.7742 21.0613 21 20.5163 21 19.948V4.23368C21 3.66536 20.7742 3.12031 20.3724 2.71845C19.9705 2.31659 19.4255 2.09082 18.8571 2.09082Z" fill="white"/>
</svg>
