<svg width="250" height="92" viewBox="0 0 250 92" fill="none" xmlns="http://www.w3.org/2000/svg">
<path d="M238.406 71.8697C235.482 71.8697 232.92 71.1294 230.718 69.6487C228.516 68.168 226.921 66.1558 225.934 63.6121L229.522 61.9036C230.395 63.7639 231.61 65.2446 233.167 66.3456C234.761 67.4467 236.508 67.9972 238.406 67.9972C240.228 67.9972 241.766 67.5606 243.019 66.6873C244.272 65.7761 244.898 64.5992 244.898 63.1565C244.898 62.0934 244.594 61.2581 243.987 60.6507C243.379 60.0053 242.677 59.5117 241.88 59.17C241.082 58.8283 240.38 58.5815 239.773 58.4297L235.388 57.1768C232.578 56.3795 230.547 55.2595 229.294 53.8168C228.041 52.374 227.415 50.7035 227.415 48.8052C227.415 47.0208 227.87 45.4642 228.781 44.1353C229.693 42.8065 230.926 41.7814 232.483 41.0601C234.04 40.3387 235.767 39.978 237.666 39.978C240.247 39.978 242.582 40.6614 244.67 42.0282C246.796 43.357 248.296 45.2174 249.169 47.6093L245.525 49.3177C244.765 47.6093 243.664 46.2804 242.221 45.3313C240.817 44.3442 239.241 43.8506 237.495 43.8506C235.786 43.8506 234.419 44.2872 233.394 45.1604C232.369 46.0337 231.857 47.1347 231.857 48.4635C231.857 49.4886 232.122 50.3049 232.654 50.9123C233.185 51.5198 233.793 51.9754 234.476 52.2791C235.198 52.5828 235.824 52.8106 236.356 52.9625L241.424 54.4432C243.892 55.1646 245.809 56.2846 247.176 57.8032C248.581 59.3219 249.283 61.1063 249.283 63.1565C249.283 64.827 248.809 66.3267 247.859 67.6555C246.948 68.9843 245.676 70.0284 244.044 70.7877C242.411 71.5091 240.532 71.8697 238.406 71.8697Z" fill="white"/>
<path d="M174.953 71.1863V40.6614H179.224V46.4703L178.54 45.616C179.376 43.8316 180.61 42.4458 182.242 41.4587C183.913 40.4716 185.735 39.978 187.709 39.978C190.063 39.978 192.189 40.6424 194.088 41.9713C195.986 43.3001 197.334 45.0275 198.131 47.1537L196.935 47.2106C197.694 44.8567 199.004 43.0723 200.865 41.8574C202.763 40.6045 204.851 39.978 207.129 39.978C209.179 39.978 211.059 40.4716 212.767 41.4587C214.514 42.4458 215.899 43.8126 216.924 45.5591C217.987 47.2676 218.519 49.2038 218.519 51.3679V71.1863H214.248V53.0195C214.248 51.1591 213.906 49.5835 213.223 48.2927C212.577 47.0018 211.685 46.0147 210.546 45.3313C209.407 44.6099 208.097 44.2492 206.617 44.2492C205.174 44.2492 203.864 44.6099 202.687 45.3313C201.51 46.0147 200.58 47.0208 199.897 48.3496C199.213 49.6405 198.871 51.1971 198.871 53.0195V71.1863H194.6V53.0195C194.6 51.1591 194.259 49.5835 193.575 48.2927C192.93 47.0018 192.037 46.0147 190.899 45.3313C189.76 44.6099 188.45 44.2492 186.969 44.2492C185.488 44.2492 184.159 44.6099 182.983 45.3313C181.844 46.0147 180.932 47.0208 180.249 48.3496C179.566 49.6405 179.224 51.1971 179.224 53.0195V71.1863H174.953Z" fill="white"/>
<path d="M150.79 71.8697C147.905 71.8697 145.285 71.1863 142.931 69.8196C140.577 68.4148 138.698 66.5165 137.293 64.1246C135.926 61.6948 135.243 58.9422 135.243 55.8669C135.243 52.8296 135.926 50.115 137.293 47.7232C138.66 45.3313 140.501 43.4519 142.817 42.0852C145.171 40.6804 147.829 39.978 150.79 39.978C153.751 39.978 156.39 40.6614 158.706 42.0282C161.06 43.395 162.901 45.2743 164.23 47.6662C165.597 50.0581 166.28 52.7917 166.28 55.8669C166.28 58.9802 165.578 61.7517 164.173 64.1816C162.768 66.5734 160.889 68.4528 158.535 69.8196C156.219 71.1863 153.638 71.8697 150.79 71.8697ZM150.79 67.5985C152.84 67.5985 154.682 67.086 156.314 66.0609C157.985 65.0358 159.294 63.631 160.244 61.8466C161.231 60.0622 161.724 58.069 161.724 55.8669C161.724 53.6649 161.231 51.6906 160.244 49.9442C159.294 48.1977 157.985 46.812 156.314 45.7869C154.682 44.7618 152.84 44.2492 150.79 44.2492C148.74 44.2492 146.88 44.7618 145.209 45.7869C143.576 46.812 142.267 48.1977 141.279 49.9442C140.292 51.6906 139.799 53.6649 139.799 55.8669C139.799 58.069 140.292 60.0622 141.279 61.8466C142.267 63.631 143.576 65.0358 145.209 66.0609C146.88 67.086 148.74 67.5985 150.79 67.5985Z" fill="white"/>
<path d="M112.334 71.8697C109.449 71.8697 106.829 71.1863 104.475 69.8196C102.121 68.4148 100.242 66.5165 98.8372 64.1246C97.4704 61.6948 96.787 58.9422 96.787 55.8669C96.787 52.8296 97.4704 50.115 98.8372 47.7232C100.204 45.3313 102.045 43.4519 104.361 42.0852C106.715 40.6804 109.373 39.978 112.334 39.978C115.296 39.978 117.934 40.6614 120.25 42.0282C122.604 43.395 124.445 45.2743 125.774 47.6662C127.141 50.0581 127.824 52.7917 127.824 55.8669C127.824 58.9802 127.122 61.7517 125.717 64.1816C124.313 66.5734 122.433 68.4528 120.079 69.8196C117.763 71.1863 115.182 71.8697 112.334 71.8697ZM112.334 67.5985C114.384 67.5985 116.226 67.086 117.858 66.0609C119.529 65.0358 120.839 63.631 121.788 61.8466C122.775 60.0622 123.269 58.069 123.269 55.8669C123.269 53.6649 122.775 51.6906 121.788 49.9442C120.839 48.1977 119.529 46.812 117.858 45.7869C116.226 44.7618 114.384 44.2492 112.334 44.2492C110.284 44.2492 108.424 44.7618 106.753 45.7869C105.121 46.812 103.811 48.1977 102.824 49.9442C101.837 51.6906 101.343 53.6649 101.343 55.8669C101.343 58.069 101.837 60.0622 102.824 61.8466C103.811 63.631 105.121 65.0358 106.753 66.0609C108.424 67.086 110.284 67.5985 112.334 67.5985Z" fill="white"/>
<path d="M77.6581 71.1868V40.6618H81.9294V45.6734L81.3599 44.933C82.0812 43.4903 83.1633 42.3513 84.606 41.5161C86.0867 40.6808 87.8711 40.2632 89.9592 40.2632H91.8955V44.5344H89.2189C87.0168 44.5344 85.2514 45.2178 83.9226 46.5846C82.5938 47.9514 81.9294 49.8876 81.9294 52.3934V71.1868H77.6581Z" fill="white"/>
<path d="M55.7133 71.8704C52.6001 71.8704 49.7906 71.168 47.2848 69.7633C44.817 68.3205 42.8427 66.3653 41.362 63.8975C39.9193 61.4296 39.198 58.6581 39.198 55.5828C39.198 52.5076 39.9193 49.755 41.362 47.3252C42.8048 44.8573 44.779 42.9211 47.2848 41.5163C49.7906 40.1116 52.6001 39.4092 55.7133 39.4092C58.0293 39.4092 60.1744 39.8078 62.1486 40.6051C64.1229 41.4024 65.8124 42.5224 67.2171 43.9651C68.6219 45.3699 69.628 47.0404 70.2354 48.9767L62.832 52.1659C62.3005 50.6092 61.3893 49.3753 60.0984 48.4641C58.8455 47.553 57.3838 47.0974 55.7133 47.0974C54.2326 47.0974 52.9038 47.458 51.7269 48.1794C50.5879 48.9008 49.6767 49.9069 48.9933 51.1977C48.3479 52.4886 48.0251 53.9693 48.0251 55.6398C48.0251 57.3103 48.3479 58.791 48.9933 60.0818C49.6767 61.3727 50.5879 62.3788 51.7269 63.1002C52.9038 63.8215 54.2326 64.1822 55.7133 64.1822C57.4218 64.1822 58.9025 63.7266 60.1554 62.8154C61.4083 61.9042 62.3005 60.6703 62.832 59.1137L70.2354 62.3598C69.6659 64.1822 68.6788 65.8148 67.2741 67.2575C65.8693 68.7002 64.1798 69.8392 62.2056 70.6744C60.2313 71.4717 58.0672 71.8704 55.7133 71.8704Z" fill="white"/>
<path d="M17.0315 89.7347C14.5648 89.7347 12.2744 89.3236 10.1601 88.5014C8.04589 87.6792 6.22529 86.5242 4.69833 85.0364C2.34437 82.7444 1.62152 80.1512 1.39906 76.9905H10.1601C10.1601 78.6937 10.9432 79.6529 12.2744 80.5143C13.6056 81.3756 15.1913 81.8063 17.0315 81.8063C18.4801 81.8063 19.733 81.5322 20.7901 80.9841C21.8472 80.4751 22.6499 79.7116 23.198 78.6937C23.7853 77.6757 24.0789 76.4815 24.0789 75.1112V62.1421L25.7821 64.2564C24.6858 66.0574 23.2763 67.4082 21.5536 68.3087C19.8309 69.17 17.8145 69.6007 15.5045 69.6007C12.5289 69.6007 9.8665 68.9351 7.51733 67.6039C5.16817 66.2336 3.32798 64.3738 1.99679 62.0246C0.665597 59.6363 0 56.9348 0 53.92C0 50.9053 0.665597 48.2429 1.99679 45.9329C3.32798 43.5837 5.14859 41.7435 7.4586 40.4123C9.76861 39.0811 12.3918 38.4155 15.3283 38.4155C17.6383 38.4155 19.6547 38.8854 21.3774 39.825C23.1001 40.7255 24.5684 42.1155 25.7821 43.9948L24.6662 46.109V39.1203H32.8883V75.1112C32.8883 77.9302 32.2031 80.436 30.8328 82.6285C29.4625 84.8602 27.5831 86.6025 25.1948 87.8554C22.8456 89.1083 20.1245 89.7347 17.0315 89.7347ZM16.7378 61.6135C18.2256 61.6135 19.5177 61.3003 20.6139 60.6739C21.7102 60.0474 22.552 59.1665 23.1393 58.0311C23.7657 56.8956 24.0789 55.5644 24.0789 54.0375C24.0789 52.5105 23.7657 51.1793 23.1393 50.0439C22.5128 48.8693 21.6515 47.9688 20.5552 47.3424C19.4589 46.6768 18.1865 46.344 16.7378 46.344C15.25 46.344 13.9188 46.6768 12.7442 47.3424C11.6088 47.9688 10.7083 48.8693 10.0427 50.0439C9.41624 51.1793 9.10302 52.5105 9.10302 54.0375C9.10302 55.5253 9.41624 56.8369 10.0427 57.9723C10.7083 59.1078 11.6088 60.0083 12.7442 60.6739C13.9188 61.3003 15.25 61.6135 16.7378 61.6135Z" fill="white"/>
<path d="M72.666 88.2139L72.85 86.9489H73.77L73.586 88.2139H72.666ZM78.2565 88.2139L78.4405 86.9489H79.3605L79.1765 88.2139H78.2565ZM83.8471 88.2139L84.0311 86.9489H84.9511L84.7671 88.2139H83.8471ZM96.4057 88.3519C95.8537 88.3519 95.363 88.2215 94.9337 87.9609C94.512 87.7002 94.1824 87.3437 93.9447 86.8914C93.707 86.439 93.5882 85.9254 93.5882 85.3504C93.5882 84.8674 93.6687 84.4189 93.8297 84.0049C93.9984 83.5832 94.2284 83.2152 94.5197 82.9009C94.8187 82.5865 95.1637 82.345 95.5547 82.1764C95.9534 82 96.3789 81.9119 96.8312 81.9119C97.2299 81.9119 97.594 81.9809 97.9237 82.1189C98.261 82.2492 98.5524 82.4332 98.7977 82.6709C99.043 82.9085 99.2232 83.1845 99.3382 83.4989L98.5447 83.8784C98.4144 83.5487 98.1997 83.2842 97.9007 83.0849C97.6017 82.8779 97.249 82.7744 96.8427 82.7744C96.3904 82.7744 95.9879 82.897 95.6352 83.1424C95.2825 83.38 95.0065 83.6944 94.8072 84.0854C94.6079 84.4764 94.5082 84.898 94.5082 85.3504C94.5082 85.7644 94.5925 86.1324 94.7612 86.4544C94.9299 86.7764 95.1637 87.0294 95.4627 87.2134C95.7617 87.3974 96.099 87.4894 96.4747 87.4894C96.8887 87.4894 97.2605 87.3859 97.5902 87.1789C97.9199 86.9642 98.1767 86.6844 98.3607 86.3394L99.1197 86.7879C98.9587 87.0945 98.7402 87.3667 98.4642 87.6044C98.1959 87.8344 97.8854 88.0184 97.5327 88.1564C97.18 88.2867 96.8044 88.3519 96.4057 88.3519ZM105.897 88.3519C105.345 88.3519 104.843 88.2254 104.39 87.9724C103.946 87.7117 103.589 87.3514 103.321 86.8914C103.06 86.4314 102.93 85.9024 102.93 85.3044C102.93 84.8367 103.014 84.3997 103.183 83.9934C103.351 83.5794 103.585 83.219 103.884 82.9124C104.191 82.598 104.544 82.3527 104.942 82.1764C105.349 82 105.782 81.9119 106.242 81.9119C106.809 81.9119 107.315 82.0422 107.76 82.3029C108.212 82.5559 108.569 82.9085 108.829 83.3609C109.09 83.8132 109.22 84.3345 109.22 84.9249C109.22 85.3925 109.132 85.8334 108.956 86.2474C108.787 86.6614 108.549 87.0294 108.243 87.3514C107.936 87.6657 107.583 87.911 107.185 88.0874C106.786 88.2637 106.357 88.3519 105.897 88.3519ZM105.885 87.4894C106.338 87.4894 106.744 87.3705 107.104 87.1329C107.472 86.8952 107.764 86.5809 107.978 86.1899C108.193 85.7989 108.3 85.3734 108.3 84.9134C108.3 84.4994 108.212 84.1314 108.036 83.8094C107.859 83.4874 107.614 83.2344 107.3 83.0504C106.993 82.8664 106.644 82.7744 106.253 82.7744C105.809 82.7744 105.402 82.8932 105.034 83.1309C104.674 83.3609 104.386 83.6675 104.172 84.0509C103.957 84.4342 103.85 84.8597 103.85 85.3274C103.85 85.7414 103.938 86.1132 104.114 86.4429C104.291 86.7649 104.532 87.0217 104.839 87.2134C105.145 87.3974 105.494 87.4894 105.885 87.4894ZM112.615 88.2139L113.478 82.0499H114.34L114.191 83.1884L114.087 83.0159C114.302 82.6632 114.582 82.391 114.927 82.1994C115.272 82.0077 115.64 81.9119 116.031 81.9119C116.514 81.9119 116.928 82.046 117.273 82.3144C117.618 82.5827 117.84 82.943 117.94 83.3954L117.71 83.3839C117.917 82.8932 118.227 82.5252 118.641 82.2799C119.063 82.0345 119.5 81.9119 119.952 81.9119C120.381 81.9119 120.757 82.0154 121.079 82.2224C121.401 82.4294 121.643 82.7169 121.804 83.0849C121.972 83.4529 122.022 83.8745 121.953 84.3499L121.413 88.2139H120.55L121.079 84.4074C121.125 84.07 121.098 83.7825 120.999 83.5449C120.907 83.2995 120.757 83.1117 120.55 82.9814C120.351 82.8434 120.105 82.7744 119.814 82.7744C119.53 82.7744 119.254 82.8395 118.986 82.9699C118.725 83.1002 118.503 83.288 118.319 83.5334C118.135 83.7787 118.02 84.0739 117.974 84.4189L117.445 88.2139H116.583L117.112 84.4074C117.158 84.07 117.131 83.7825 117.031 83.5449C116.939 83.2995 116.79 83.1117 116.583 82.9814C116.383 82.8434 116.138 82.7744 115.847 82.7744C115.548 82.7744 115.264 82.8472 114.996 82.9929C114.735 83.1385 114.513 83.3455 114.329 83.6139C114.152 83.8822 114.037 84.2004 113.984 84.5684L113.478 88.2139H112.615ZM125.992 88.2139L126.728 82.9124H125.509L125.635 82.0499H126.854L126.923 81.5899C126.992 81.1222 127.142 80.735 127.372 80.4284C127.602 80.1217 127.874 79.8917 128.188 79.7384C128.51 79.585 128.836 79.5084 129.166 79.5084C129.273 79.5084 129.376 79.516 129.476 79.5314C129.583 79.539 129.675 79.5505 129.752 79.5659L129.695 80.3479C129.641 80.3325 129.568 80.3249 129.476 80.3249C129.392 80.3172 129.334 80.3134 129.304 80.3134C128.928 80.3134 128.598 80.4092 128.315 80.6009C128.031 80.7925 127.855 81.1375 127.786 81.6359L127.728 82.0499H129.235L129.108 82.9124H127.602L126.866 88.2139H125.992ZM135.033 88.3519C134.481 88.3519 133.979 88.2254 133.527 87.9724C133.082 87.7117 132.725 87.3514 132.457 86.8914C132.196 86.4314 132.066 85.9024 132.066 85.3044C132.066 84.8367 132.15 84.3997 132.319 83.9934C132.488 83.5794 132.722 83.219 133.021 82.9124C133.327 82.598 133.68 82.3527 134.079 82.1764C134.485 82 134.918 81.9119 135.378 81.9119C135.945 81.9119 136.451 82.0422 136.896 82.3029C137.348 82.5559 137.705 82.9085 137.966 83.3609C138.226 83.8132 138.357 84.3345 138.357 84.9249C138.357 85.3925 138.268 85.8334 138.092 86.2474C137.923 86.6614 137.686 87.0294 137.379 87.3514C137.072 87.6657 136.72 87.911 136.321 88.0874C135.922 88.2637 135.493 88.3519 135.033 88.3519ZM135.022 87.4894C135.474 87.4894 135.88 87.3705 136.241 87.1329C136.609 86.8952 136.9 86.5809 137.115 86.1899C137.329 85.7989 137.437 85.3734 137.437 84.9134C137.437 84.4994 137.348 84.1314 137.172 83.8094C136.996 83.4874 136.75 83.2344 136.436 83.0504C136.129 82.8664 135.781 82.7744 135.39 82.7744C134.945 82.7744 134.539 82.8932 134.171 83.1309C133.81 83.3609 133.523 83.6675 133.308 84.0509C133.093 84.4342 132.986 84.8597 132.986 85.3274C132.986 85.7414 133.074 86.1132 133.251 86.4429C133.427 86.7649 133.668 87.0217 133.975 87.2134C134.282 87.3974 134.631 87.4894 135.022 87.4894ZM141.751 88.2139L142.614 82.0499H143.488L143.35 83.0619L143.235 82.9124C143.427 82.621 143.68 82.391 143.994 82.2224C144.316 82.0537 144.688 81.9694 145.109 81.9694H145.5L145.374 82.8319H144.833C144.389 82.8319 144.013 82.9737 143.706 83.2574C143.407 83.541 143.216 83.9665 143.131 84.5339L142.625 88.2139H141.751ZM150.329 88.2829C149.769 88.2829 149.359 88.118 149.099 87.7884C148.838 87.4587 148.746 86.9949 148.823 86.3969L149.306 82.9124H148.167L148.294 82.0499H148.558C148.819 82.0499 149.041 81.9617 149.225 81.7854C149.417 81.6014 149.528 81.379 149.559 81.1184L149.628 80.6239H150.502L150.306 82.0499H151.652L151.525 82.9124H150.18L149.685 86.4429C149.654 86.6499 149.654 86.8339 149.685 86.9949C149.723 87.1482 149.808 87.267 149.938 87.3514C150.068 87.4357 150.256 87.4779 150.502 87.4779C150.578 87.4779 150.659 87.474 150.743 87.4664C150.827 87.4587 150.9 87.451 150.962 87.4434L150.893 88.2369C150.801 88.2599 150.697 88.2714 150.582 88.2714C150.475 88.279 150.39 88.2829 150.329 88.2829ZM158.777 90.7439C158.646 90.7439 158.516 90.7324 158.386 90.7094C158.255 90.6864 158.133 90.6519 158.018 90.6059L158.087 89.8124C158.163 89.82 158.259 89.8315 158.374 89.8469C158.482 89.8699 158.593 89.8814 158.708 89.8814C158.968 89.8814 159.187 89.843 159.363 89.7664C159.547 89.6974 159.716 89.5785 159.869 89.4099C160.023 89.2412 160.184 89.0112 160.352 88.7199L160.881 87.8229L160.766 88.5819L159.076 82.0384H159.984L161.353 87.4434H161.065L164.009 82.0384H164.987L161.192 89.0189C161.031 89.3179 160.835 89.5977 160.605 89.8584C160.383 90.1267 160.122 90.3414 159.823 90.5024C159.524 90.6634 159.175 90.7439 158.777 90.7439ZM170.476 88.3519C169.924 88.3519 169.422 88.2254 168.97 87.9724C168.525 87.7117 168.169 87.3514 167.9 86.8914C167.64 86.4314 167.509 85.9024 167.509 85.3044C167.509 84.8367 167.594 84.3997 167.762 83.9934C167.931 83.5794 168.165 83.219 168.464 82.9124C168.771 82.598 169.123 82.3527 169.522 82.1764C169.928 82 170.361 81.9119 170.821 81.9119C171.389 81.9119 171.895 82.0422 172.339 82.3029C172.792 82.5559 173.148 82.9085 173.409 83.3609C173.67 83.8132 173.8 84.3345 173.8 84.9249C173.8 85.3925 173.712 85.8334 173.535 86.2474C173.367 86.6614 173.129 87.0294 172.822 87.3514C172.516 87.6657 172.163 87.911 171.764 88.0874C171.366 88.2637 170.936 88.3519 170.476 88.3519ZM170.465 87.4894C170.917 87.4894 171.324 87.3705 171.684 87.1329C172.052 86.8952 172.343 86.5809 172.558 86.1899C172.773 85.7989 172.88 85.3734 172.88 84.9134C172.88 84.4994 172.792 84.1314 172.615 83.8094C172.439 83.4874 172.194 83.2344 171.879 83.0504C171.573 82.8664 171.224 82.7744 170.833 82.7744C170.388 82.7744 169.982 82.8932 169.614 83.1309C169.254 83.3609 168.966 83.6675 168.751 84.0509C168.537 84.4342 168.429 84.8597 168.429 85.3274C168.429 85.7414 168.518 86.1132 168.694 86.4429C168.87 86.7649 169.112 87.0217 169.418 87.2134C169.725 87.3974 170.074 87.4894 170.465 87.4894ZM179.403 88.3519C178.966 88.3519 178.582 88.2484 178.253 88.0414C177.923 87.8267 177.682 87.5277 177.528 87.1444C177.375 86.761 177.333 86.3125 177.402 85.7989L177.931 82.0499H178.793L178.253 85.8564C178.207 86.186 178.234 86.4735 178.333 86.7189C178.433 86.9642 178.59 87.1559 178.805 87.2939C179.019 87.4242 179.28 87.4894 179.587 87.4894C179.909 87.4894 180.204 87.4165 180.472 87.2709C180.741 87.1252 180.963 86.9182 181.139 86.6499C181.323 86.3815 181.442 86.0634 181.496 85.6954L182.013 82.0499H182.876L182.013 88.2139H181.151L181.312 87.0179L181.507 87.0869C181.3 87.4855 181.009 87.796 180.633 88.0184C180.265 88.2407 179.855 88.3519 179.403 88.3519ZM193.365 88.3519C192.813 88.3519 192.323 88.2254 191.893 87.9724C191.464 87.7117 191.127 87.359 190.881 86.9144C190.644 86.462 190.525 85.9484 190.525 85.3734C190.525 84.898 190.605 84.4534 190.766 84.0394C190.927 83.6177 191.154 83.2497 191.445 82.9354C191.736 82.6134 192.077 82.3642 192.468 82.1879C192.867 82.0039 193.3 81.9119 193.768 81.9119C194.335 81.9119 194.822 82.0307 195.228 82.2684C195.635 82.506 195.949 82.8319 196.171 83.2459L196.056 83.4299L196.597 79.5084H197.471L196.263 88.2139H195.401L195.585 86.8339L195.838 86.9719C195.6 87.4165 195.259 87.7577 194.814 87.9954C194.37 88.233 193.887 88.3519 193.365 88.3519ZM193.423 87.4894C193.875 87.4894 194.282 87.3705 194.642 87.1329C195.01 86.8952 195.301 86.5809 195.516 86.1899C195.731 85.7989 195.838 85.3772 195.838 84.9249C195.838 84.5109 195.75 84.1429 195.573 83.8209C195.397 83.4989 195.156 83.2459 194.849 83.0619C194.542 82.8702 194.193 82.7744 193.802 82.7744C193.35 82.7744 192.944 82.8932 192.583 83.1309C192.231 83.3685 191.951 83.6867 191.744 84.0854C191.545 84.4764 191.445 84.9057 191.445 85.3734C191.445 85.7797 191.529 86.1439 191.698 86.4659C191.867 86.7802 192.1 87.0294 192.399 87.2134C192.698 87.3974 193.04 87.4894 193.423 87.4894ZM203.393 88.3519C202.841 88.3519 202.35 88.2254 201.921 87.9724C201.491 87.7117 201.15 87.3552 200.897 86.9029C200.652 86.4505 200.529 85.933 200.529 85.3504C200.529 84.8827 200.606 84.4419 200.759 84.0279C200.92 83.6139 201.143 83.2497 201.426 82.9354C201.718 82.6134 202.055 82.3642 202.438 82.1879C202.822 82.0039 203.243 81.9119 203.703 81.9119C204.271 81.9119 204.754 82.0422 205.152 82.3029C205.551 82.5635 205.854 82.9047 206.061 83.3264C206.268 83.7404 206.371 84.1812 206.371 84.6489C206.371 84.7715 206.36 84.9057 206.337 85.0514C206.314 85.197 206.295 85.312 206.279 85.3964H201.07L201.127 84.5914H205.842L205.405 84.9249C205.513 84.5185 205.497 84.1505 205.359 83.8209C205.229 83.4835 205.014 83.2152 204.715 83.0159C204.424 82.8165 204.083 82.7169 203.692 82.7169C203.201 82.7169 202.787 82.8357 202.45 83.0734C202.112 83.311 201.856 83.6445 201.679 84.0739C201.511 84.4955 201.426 84.9862 201.426 85.5459C201.426 85.9522 201.518 86.3087 201.702 86.6154C201.886 86.9144 202.128 87.1444 202.427 87.3054C202.726 87.4664 203.052 87.5469 203.404 87.5469C203.857 87.5469 204.244 87.4395 204.566 87.2249C204.895 87.0025 205.168 86.7304 205.382 86.4084L206.107 86.8224C205.961 87.0984 205.754 87.3552 205.486 87.5929C205.217 87.8229 204.903 88.0069 204.543 88.1449C204.19 88.2829 203.807 88.3519 203.393 88.3519ZM211.985 88.3519C211.594 88.3519 211.234 88.2829 210.904 88.1449C210.575 88.0069 210.295 87.8114 210.065 87.5584C209.835 87.2977 209.67 86.9987 209.57 86.6614L210.318 86.3624C210.456 86.738 210.678 87.0332 210.985 87.2479C211.299 87.4625 211.66 87.5699 212.066 87.5699C212.457 87.5699 212.779 87.4702 213.032 87.2709C213.285 87.0639 213.411 86.807 213.411 86.5004C213.411 86.2934 213.335 86.1209 213.181 85.9829C213.036 85.8372 212.806 85.7222 212.491 85.6379L211.629 85.3964C211.154 85.266 210.793 85.0667 210.548 84.7984C210.303 84.5224 210.18 84.1965 210.18 83.8209C210.18 83.4682 210.28 83.15 210.479 82.8664C210.678 82.575 210.947 82.345 211.284 82.1764C211.621 82 211.993 81.9119 212.399 81.9119C212.944 81.9119 213.415 82.0537 213.814 82.3374C214.213 82.621 214.473 83.0005 214.596 83.4759L213.837 83.7749C213.714 83.4222 213.526 83.1539 213.273 82.9699C213.02 82.7859 212.714 82.6939 212.353 82.6939C211.978 82.6939 211.671 82.7897 211.433 82.9814C211.196 83.173 211.077 83.4145 211.077 83.7059C211.077 83.9129 211.138 84.0854 211.261 84.2234C211.391 84.3614 211.598 84.4725 211.882 84.5569L212.871 84.8559C213.331 84.9939 213.684 85.2009 213.929 85.4769C214.182 85.7529 214.308 86.0825 214.308 86.4659C214.308 86.8185 214.205 87.1367 213.998 87.4204C213.799 87.704 213.523 87.9302 213.17 88.0989C212.817 88.2675 212.422 88.3519 211.985 88.3519ZM220.953 88.3519C220.401 88.3519 219.91 88.2254 219.481 87.9724C219.051 87.7117 218.71 87.3552 218.457 86.9029C218.212 86.4505 218.089 85.933 218.089 85.3504C218.089 84.8827 218.166 84.4419 218.319 84.0279C218.48 83.6139 218.703 83.2497 218.986 82.9354C219.278 82.6134 219.615 82.3642 219.998 82.1879C220.382 82.0039 220.803 81.9119 221.263 81.9119C221.831 81.9119 222.314 82.0422 222.712 82.3029C223.111 82.5635 223.414 82.9047 223.621 83.3264C223.828 83.7404 223.931 84.1812 223.931 84.6489C223.931 84.7715 223.92 84.9057 223.897 85.0514C223.874 85.197 223.855 85.312 223.839 85.3964H218.63L218.687 84.5914H223.402L222.965 84.9249C223.073 84.5185 223.057 84.1505 222.919 83.8209C222.789 83.4835 222.574 83.2152 222.275 83.0159C221.984 82.8165 221.643 82.7169 221.252 82.7169C220.761 82.7169 220.347 82.8357 220.01 83.0734C219.672 83.311 219.416 83.6445 219.239 84.0739C219.071 84.4955 218.986 84.9862 218.986 85.5459C218.986 85.9522 219.078 86.3087 219.262 86.6154C219.446 86.9144 219.688 87.1444 219.987 87.3054C220.286 87.4664 220.612 87.5469 220.964 87.5469C221.417 87.5469 221.804 87.4395 222.126 87.2249C222.455 87.0025 222.728 86.7304 222.942 86.4084L223.667 86.8224C223.521 87.0984 223.314 87.3552 223.046 87.5929C222.777 87.8229 222.463 88.0069 222.103 88.1449C221.75 88.2829 221.367 88.3519 220.953 88.3519ZM227.303 88.2139L228.165 82.0499H229.039L228.901 83.0619L228.786 82.9124C228.978 82.621 229.231 82.391 229.545 82.2224C229.867 82.0537 230.239 81.9694 230.661 81.9694H231.052L230.925 82.8319H230.385C229.94 82.8319 229.565 82.9737 229.258 83.2574C228.959 83.541 228.767 83.9665 228.683 84.5339L228.177 88.2139H227.303ZM235.122 88.2139L233.592 82.0499H234.512L235.777 87.4549H235.478L238.273 82.0499H239.285L235.984 88.2139H235.122ZM244.665 88.3519C244.113 88.3519 243.622 88.2254 243.193 87.9724C242.763 87.7117 242.422 87.3552 242.169 86.9029C241.924 86.4505 241.801 85.933 241.801 85.3504C241.801 84.8827 241.878 84.4419 242.031 84.0279C242.192 83.6139 242.415 83.2497 242.698 82.9354C242.99 82.6134 243.327 82.3642 243.71 82.1879C244.094 82.0039 244.515 81.9119 244.975 81.9119C245.543 81.9119 246.026 82.0422 246.424 82.3029C246.823 82.5635 247.126 82.9047 247.333 83.3264C247.54 83.7404 247.643 84.1812 247.643 84.6489C247.643 84.7715 247.632 84.9057 247.609 85.0514C247.586 85.197 247.567 85.312 247.551 85.3964H242.342L242.399 84.5914H247.114L246.677 84.9249C246.785 84.5185 246.769 84.1505 246.631 83.8209C246.501 83.4835 246.286 83.2152 245.987 83.0159C245.696 82.8165 245.355 82.7169 244.964 82.7169C244.473 82.7169 244.059 82.8357 243.722 83.0734C243.384 83.311 243.128 83.6445 242.951 84.0739C242.783 84.4955 242.698 84.9862 242.698 85.5459C242.698 85.9522 242.79 86.3087 242.974 86.6154C243.158 86.9144 243.4 87.1444 243.699 87.3054C243.998 87.4664 244.324 87.5469 244.676 87.5469C245.129 87.5469 245.516 87.4395 245.838 87.2249C246.167 87.0025 246.44 86.7304 246.654 86.4084L247.379 86.8224C247.233 87.0984 247.026 87.3552 246.758 87.5929C246.489 87.8229 246.175 88.0069 245.815 88.1449C245.462 88.2829 245.079 88.3519 244.665 88.3519Z" fill="white"/>
<path d="M0.954132 30.6993V22.0234L37.7493 0L70.3613 22.0234V30.6993L37.7493 9.56573L0.954132 30.6993Z" fill="white"/>
</svg>
