<svg width="1221" height="356" viewBox="0 0 1221 356" fill="none" xmlns="http://www.w3.org/2000/svg">
<g filter="url(#filter0_f_11_155)">
<path d="M610.098 52C862.471 52 1078.84 156.713 1170.19 305.67C1047.67 208.624 842.512 145 610.098 145C377.683 145 172.522 208.624 50 305.67C141.354 156.713 357.724 52 610.098 52Z" fill="#660ED1" fill-opacity="0.5"/>
</g>
<g filter="url(#filter1_f_11_155)">
<path d="M610.098 62C823.654 62 1011.81 134.361 1122.19 244.24C1003.75 151.012 818.412 91 610.098 91C401.783 91 216.445 151.011 98.0039 244.24C208.387 134.361 396.541 62 610.098 62Z" fill="#771AE9" fill-opacity="0.5"/>
</g>
<g filter="url(#filter2_f_11_155)">
<path d="M610.897 50.3029C736.022 50.3029 852.308 70.4558 970.171 129.235C997.113 141.546 1059.45 177.378 1108.6 230C1039.38 175.045 1003.78 158.678 961.974 139.577C859.525 92.7649 733.028 72.9297 610.897 72.9297C488.801 72.9297 361.318 97.3015 259.553 144.395C232.043 157.126 134.598 218.307 134.598 218.307C171.21 182.417 207.823 161.704 242.516 140.357C333.711 91.7284 478.657 45.8244 610.897 50.3029Z" fill="#660ED1"/>
</g>
<g filter="url(#filter3_f_11_155)">
<path d="M609.093 54C718.746 54 822.672 74.4426 915.687 111.002C821.514 80.0859 717.891 62.9776 609.088 62.9775C500.312 62.9775 396.714 80.0773 302.561 110.979C395.56 74.4341 499.464 54.0001 609.093 54Z" fill="#9752F6"/>
</g>
<g filter="url(#filter4_f_11_155)">
<path d="M609.093 54C718.746 54 822.672 74.4426 915.687 111.002C821.514 80.0859 717.891 62.9776 609.088 62.9775C500.312 62.9775 396.714 80.0773 302.561 110.979C395.56 74.4341 499.464 54.0001 609.093 54Z" fill="#9752F6"/>
</g>
<g filter="url(#filter5_f_11_155)">
<path d="M609.133 50C684.892 50 757.703 61.3362 825.583 82.2197C757.211 64.5159 684.509 54.9776 609.128 54.9775C533.771 54.9775 461.092 64.5096 392.74 82.2021C460.604 61.33 533.396 50 609.133 50Z" fill="#F3CCFF"/>
</g>
<defs>
<filter id="filter0_f_11_155" x="0" y="2" width="1220.19" height="353.67" filterUnits="userSpaceOnUse" color-interpolation-filters="sRGB">
<feFlood flood-opacity="0" result="BackgroundImageFix"/>
<feBlend mode="normal" in="SourceGraphic" in2="BackgroundImageFix" result="shape"/>
<feGaussianBlur stdDeviation="25" result="effect1_foregroundBlur_11_155"/>
</filter>
<filter id="filter1_f_11_155" x="78.0039" y="42" width="1064.19" height="222.24" filterUnits="userSpaceOnUse" color-interpolation-filters="sRGB">
<feFlood flood-opacity="0" result="BackgroundImageFix"/>
<feBlend mode="normal" in="SourceGraphic" in2="BackgroundImageFix" result="shape"/>
<feGaussianBlur stdDeviation="10" result="effect1_foregroundBlur_11_155"/>
</filter>
<filter id="filter2_f_11_155" x="84.5977" y="0" width="1074" height="280" filterUnits="userSpaceOnUse" color-interpolation-filters="sRGB">
<feFlood flood-opacity="0" result="BackgroundImageFix"/>
<feBlend mode="normal" in="SourceGraphic" in2="BackgroundImageFix" result="shape"/>
<feGaussianBlur stdDeviation="25" result="effect1_foregroundBlur_11_155"/>
</filter>
<filter id="filter3_f_11_155" x="277.561" y="29" width="663.126" height="107.002" filterUnits="userSpaceOnUse" color-interpolation-filters="sRGB">
<feFlood flood-opacity="0" result="BackgroundImageFix"/>
<feBlend mode="normal" in="SourceGraphic" in2="BackgroundImageFix" result="shape"/>
<feGaussianBlur stdDeviation="12.5" result="effect1_foregroundBlur_11_155"/>
</filter>
<filter id="filter4_f_11_155" x="298.561" y="50" width="621.126" height="65.002" filterUnits="userSpaceOnUse" color-interpolation-filters="sRGB">
<feFlood flood-opacity="0" result="BackgroundImageFix"/>
<feBlend mode="normal" in="SourceGraphic" in2="BackgroundImageFix" result="shape"/>
<feGaussianBlur stdDeviation="2" result="effect1_foregroundBlur_11_155"/>
</filter>
<filter id="filter5_f_11_155" x="390.74" y="48" width="436.843" height="36.2197" filterUnits="userSpaceOnUse" color-interpolation-filters="sRGB">
<feFlood flood-opacity="0" result="BackgroundImageFix"/>
<feBlend mode="normal" in="SourceGraphic" in2="BackgroundImageFix" result="shape"/>
<feGaussianBlur stdDeviation="1" result="effect1_foregroundBlur_11_155"/>
</filter>
</defs>
</svg>
