<svg width="20" height="21" viewBox="0 0 20 21" fill="none" xmlns="http://www.w3.org/2000/svg">
<path d="M15.34 3.55082C15.1027 3.55082 14.8707 3.6212 14.6733 3.75306C14.476 3.88491 14.3222 4.07233 14.2313 4.2916C14.1405 4.51087 14.1168 4.75215 14.1631 4.98493C14.2094 5.21771 14.3236 5.43153 14.4915 5.59935C14.6593 5.76717 14.8731 5.88146 15.1059 5.92776C15.3387 5.97406 15.5799 5.9503 15.7992 5.85948C16.0185 5.76865 16.2059 5.61484 16.3378 5.4175C16.4696 5.22017 16.54 4.98816 16.54 4.75082C16.54 4.43256 16.4136 4.12734 16.1885 3.90229C15.9635 3.67725 15.6583 3.55082 15.34 3.55082ZM19.94 5.97082C19.9204 5.14114 19.765 4.32027 19.48 3.54082C19.2269 2.87337 18.831 2.26928 18.32 1.77082C17.8248 1.25825 17.2196 0.864997 16.55 0.62082C15.7727 0.326981 14.9508 0.16803 14.12 0.15082C13.06 0.0908203 12.72 0.0908203 10 0.0908203C7.28 0.0908203 6.94 0.0908203 5.88 0.15082C5.04915 0.16803 4.22734 0.326981 3.45 0.62082C2.78198 0.868073 2.17736 1.2609 1.68 1.77082C1.16743 2.266 0.774176 2.87126 0.53 3.54082C0.236161 4.31816 0.07721 5.13997 0.0599999 5.97082C-5.58794e-08 7.03082 0 7.37082 0 10.0908C0 12.8108 -5.58794e-08 13.1508 0.0599999 14.2108C0.07721 15.0417 0.236161 15.8635 0.53 16.6408C0.774176 17.3104 1.16743 17.9156 1.68 18.4108C2.17736 18.9207 2.78198 19.3136 3.45 19.5608C4.22734 19.8547 5.04915 20.0136 5.88 20.0308C6.94 20.0908 7.28 20.0908 10 20.0908C12.72 20.0908 13.06 20.0908 14.12 20.0308C14.9508 20.0136 15.7727 19.8547 16.55 19.5608C17.2196 19.3166 17.8248 18.9234 18.32 18.4108C18.8322 17.9134 19.2283 17.309 19.48 16.6408C19.765 15.8614 19.9204 15.0405 19.94 14.2108C19.94 13.1508 20 12.8108 20 10.0908C20 7.37082 20 7.03082 19.94 5.97082ZM18.14 14.0908C18.1329 14.7256 18.0179 15.3546 17.8 15.9508C17.6403 16.386 17.3839 16.7792 17.05 17.1008C16.7254 17.4311 16.3331 17.687 15.9 17.8508C15.3038 18.0688 14.6748 18.1837 14.04 18.1908C13.04 18.2408 12.67 18.2508 10.04 18.2508C7.41 18.2508 7.04 18.2508 6.04 18.1908C5.38085 18.2038 4.72445 18.1023 4.1 17.8908C3.68619 17.7181 3.3119 17.463 3 17.1408C2.66809 16.8196 2.41484 16.426 2.26 15.9908C2.01505 15.3862 1.8796 14.7429 1.86 14.0908C1.86 13.0908 1.8 12.7208 1.8 10.0908C1.8 7.46082 1.8 7.09082 1.86 6.09082C1.86365 5.4418 1.98214 4.79854 2.21 4.19082C2.38605 3.76873 2.65627 3.39248 3 3.09082C3.30292 2.74601 3.67863 2.47277 4.1 2.29082C4.7094 2.0703 5.35194 1.95532 6 1.95082C7 1.95082 7.37 1.89082 10 1.89082C12.63 1.89082 13 1.89082 14 1.95082C14.6348 1.95791 15.2638 2.07288 15.86 2.29082C16.3144 2.45947 16.7223 2.73367 17.05 3.09082C17.3767 3.39884 17.6326 3.77416 17.8 4.19082C18.0224 4.7997 18.1375 5.44258 18.14 6.09082C18.19 7.09082 18.2 7.46082 18.2 10.0908C18.2 12.7208 18.19 13.0908 18.14 14.0908ZM10 4.96082C8.98581 4.9628 7.99496 5.26535 7.15265 5.83024C6.31035 6.39513 5.65438 7.19702 5.26763 8.13457C4.88089 9.07213 4.78072 10.1033 4.97979 11.0977C5.17886 12.0922 5.66824 13.0054 6.38608 13.7218C7.10392 14.4382 8.01801 14.9258 9.01286 15.123C10.0077 15.3201 11.0387 15.2179 11.9755 14.8294C12.9123 14.4408 13.7129 13.7833 14.2761 12.9399C14.8394 12.0964 15.14 11.105 15.14 10.0908C15.1413 9.41593 15.0092 8.74743 14.7512 8.12378C14.4933 7.50013 14.1146 6.93363 13.6369 6.45687C13.1592 5.98011 12.5919 5.6025 11.9678 5.34575C11.3436 5.089 10.6749 4.95818 10 4.96082ZM10 13.4208C9.34139 13.4208 8.69757 13.2255 8.14995 12.8596C7.60234 12.4937 7.17552 11.9736 6.92348 11.3652C6.67144 10.7567 6.6055 10.0871 6.73398 9.44117C6.86247 8.79521 7.17963 8.20186 7.64533 7.73615C8.11104 7.27045 8.70439 6.95329 9.35035 6.82481C9.99631 6.69632 10.6659 6.76226 11.2743 7.0143C11.8828 7.26634 12.4029 7.69316 12.7688 8.24077C13.1347 8.78839 13.33 9.43221 13.33 10.0908C13.33 10.5281 13.2439 10.9611 13.0765 11.3652C12.9092 11.7692 12.6639 12.1363 12.3547 12.4455C12.0454 12.7547 11.6784 13 11.2743 13.1673C10.8703 13.3347 10.4373 13.4208 10 13.4208Z" fill="white"/>
</svg>
