<svg width="24" height="27" viewBox="0 0 24 27" fill="none" xmlns="http://www.w3.org/2000/svg">
<path d="M19.0375 20.0438H16.0794V15.4021C16.0794 14.2953 16.0562 12.8728 14.5325 12.8728C12.99 12.8728 12.755 14.0734 12.755 15.3202V20.0432H9.79313V10.4991H12.6381V11.801H12.6763C13.0738 11.0491 14.0406 10.2585 15.4831 10.2585C18.4837 10.2585 19.0406 12.2341 19.0406 14.8028V20.0432L19.0375 20.0438ZM6.44687 9.19481C6.2208 9.19489 5.99692 9.15037 5.78808 9.0638C5.57923 8.97723 5.38952 8.85031 5.2298 8.69031C5.07009 8.53031 4.94351 8.34037 4.85731 8.13137C4.77112 7.92238 4.72701 7.69843 4.7275 7.47236C4.72787 7.13209 4.82913 6.79957 5.01848 6.51684C5.20782 6.23412 5.47675 6.01388 5.79126 5.88398C6.10577 5.75408 6.45173 5.72034 6.78541 5.78705C7.11909 5.85375 7.4255 6.01789 7.66589 6.25871C7.90629 6.49954 8.06988 6.80624 8.13598 7.14002C8.20207 7.47381 8.16771 7.81971 8.03724 8.13397C7.90676 8.44823 7.68603 8.71675 7.40295 8.90558C7.11987 9.0944 6.78716 9.19505 6.44687 9.19481ZM7.93062 20.0438H4.9625V10.4998H7.93062V20.0438ZM20.5225 3H3.475C2.66062 3 2 3.64435 2 4.44183V21.5582C2 22.3556 2.66062 23 3.475 23H20.5194C21.3325 23 22 22.3556 22 21.5582V4.44183C22 3.64435 21.3325 3 20.5194 3H20.5225Z" fill="white"/>
</svg>
