<svg width="1006" height="501" viewBox="0 0 1006 501" fill="none" xmlns="http://www.w3.org/2000/svg">
<path d="M520.735 274.817C517.958 274.817 515.452 274.19 513.216 272.937C511.015 271.65 509.253 269.906 507.933 267.704C506.645 265.502 506.002 263.03 506.002 260.287C506.002 257.543 506.645 255.087 507.933 252.92C509.22 250.718 510.981 248.991 513.216 247.738C515.452 246.485 517.958 245.858 520.735 245.858C522.801 245.858 524.715 246.214 526.476 246.925C528.238 247.636 529.745 248.635 530.998 249.922C532.251 251.175 533.149 252.666 533.691 254.393L527.086 257.238C526.612 255.85 525.799 254.749 524.647 253.936C523.53 253.123 522.226 252.717 520.735 252.717C519.414 252.717 518.229 253.038 517.179 253.682C516.163 254.325 515.35 255.223 514.74 256.375C514.165 257.526 513.877 258.847 513.877 260.337C513.877 261.828 514.165 263.149 514.74 264.3C515.35 265.452 516.163 266.349 517.179 266.993C518.229 267.636 519.414 267.958 520.735 267.958C522.26 267.958 523.58 267.552 524.698 266.739C525.816 265.926 526.612 264.825 527.086 263.436L533.691 266.332C533.183 267.958 532.302 269.414 531.049 270.702C529.796 271.989 528.288 273.005 526.527 273.75C524.766 274.461 522.835 274.817 520.735 274.817Z" fill="#FFBE06"/>
<path d="M486.227 290.701C484.026 290.701 481.983 290.334 480.097 289.601C478.211 288.867 476.587 287.837 475.224 286.509C473.125 284.465 472.48 282.151 472.281 279.332H480.097C480.097 280.851 480.796 281.707 481.983 282.475C483.171 283.244 484.585 283.628 486.227 283.628C487.519 283.628 488.637 283.383 489.58 282.894C490.523 282.44 491.239 281.759 491.728 280.851C492.252 279.943 492.514 278.878 492.514 277.655V266.085L494.033 267.971C493.055 269.578 491.798 270.783 490.261 271.587C488.724 272.355 486.925 272.739 484.865 272.739C482.21 272.739 479.835 272.145 477.739 270.958C475.644 269.735 474.002 268.076 472.814 265.981C471.627 263.85 471.033 261.44 471.033 258.75C471.033 256.061 471.627 253.686 472.814 251.625C474.002 249.529 475.626 247.888 477.687 246.7C479.748 245.512 482.088 244.919 484.708 244.919C486.768 244.919 488.567 245.338 490.104 246.176C491.641 246.979 492.951 248.219 494.033 249.896L493.038 251.782V245.547H500.373V277.655C500.373 280.17 499.762 282.405 498.539 284.361C497.317 286.352 495.64 287.907 493.509 289.024C491.414 290.142 488.986 290.701 486.227 290.701ZM485.965 265.614C487.292 265.614 488.445 265.334 489.423 264.775C490.401 264.217 491.152 263.431 491.676 262.418C492.235 261.405 492.514 260.217 492.514 258.855C492.514 257.493 492.235 256.305 491.676 255.292C491.117 254.245 490.348 253.441 489.37 252.882C488.392 252.289 487.257 251.992 485.965 251.992C484.638 251.992 483.45 252.289 482.402 252.882C481.389 253.441 480.586 254.245 479.992 255.292C479.433 256.305 479.154 257.493 479.154 258.855C479.154 260.182 479.433 261.353 479.992 262.365C480.586 263.378 481.389 264.182 482.402 264.775C483.45 265.334 484.638 265.614 485.965 265.614Z" fill="#10D1C1"/>
<path d="M471 238.075V230.339L504.763 210.701L534.687 230.339V238.075L504.763 219.231L471 238.075Z" fill="#660ED1"/>
<rect x="505.949" y="281.371" width="28.771" height="7.82124" fill="black"/>
<path d="M450 262H0" stroke="url(#paint0_linear_232_2)" stroke-width="5"/>
<path d="M503 190L503 0" stroke="url(#paint1_linear_232_2)" stroke-width="5"/>
<path d="M503 501L503 311" stroke="url(#paint2_linear_232_2)" stroke-width="5"/>
<path d="M1006 262H556" stroke="url(#paint3_linear_232_2)" stroke-width="5"/>
<defs>
<linearGradient id="paint0_linear_232_2" x1="0" y1="262.5" x2="450" y2="262.5" gradientUnits="userSpaceOnUse">
<stop stop-color="#660ED1" stop-opacity="0"/>
<stop offset="0.716346" stop-color="#660ED1"/>
</linearGradient>
<linearGradient id="paint1_linear_232_2" x1="502.5" y1="2.02537e-08" x2="502.5" y2="190" gradientUnits="userSpaceOnUse">
<stop stop-color="#660ED1" stop-opacity="0"/>
<stop offset="0.716346" stop-color="#660ED1"/>
</linearGradient>
<linearGradient id="paint2_linear_232_2" x1="502.5" y1="311" x2="502.5" y2="501" gradientUnits="userSpaceOnUse">
<stop offset="0.283654" stop-color="#660ED1"/>
<stop offset="1" stop-color="#660ED1" stop-opacity="0"/>
</linearGradient>
<linearGradient id="paint3_linear_232_2" x1="556" y1="262.5" x2="1006" y2="262.5" gradientUnits="userSpaceOnUse">
<stop offset="0.283654" stop-color="#660ED1"/>
<stop offset="1" stop-color="#660ED1" stop-opacity="0"/>
</linearGradient>
</defs>
</svg>
