<svg width="130" height="48" viewBox="0 0 130 48" fill="none" xmlns="http://www.w3.org/2000/svg">
<path d="M123.165 37.1293C121.654 37.1293 120.33 36.7468 119.193 35.9819C118.055 35.2169 117.231 34.1774 116.721 32.8632L118.575 31.9806C119.026 32.9417 119.654 33.7066 120.458 34.2755C121.282 34.8443 122.184 35.1287 123.165 35.1287C124.106 35.1287 124.9 34.9031 125.548 34.452C126.195 33.9812 126.519 33.3732 126.519 32.6279C126.519 32.0787 126.362 31.6472 126.048 31.3333C125.734 30.9999 125.371 30.7449 124.959 30.5684C124.547 30.3919 124.185 30.2644 123.871 30.1859L121.605 29.5387C120.154 29.1268 119.105 28.5481 118.457 27.8028C117.81 27.0575 117.486 26.1945 117.486 25.2138C117.486 24.2919 117.722 23.4877 118.192 22.8012C118.663 22.1147 119.301 21.5852 120.105 21.2125C120.909 20.8398 121.801 20.6535 122.782 20.6535C124.116 20.6535 125.322 21.0065 126.401 21.7126C127.499 22.3991 128.274 23.3602 128.725 24.5959L126.842 25.4785C126.45 24.5959 125.881 23.9094 125.136 23.4191C124.41 22.9091 123.596 22.6541 122.694 22.6541C121.811 22.6541 121.105 22.8797 120.576 23.3308C120.046 23.7819 119.781 24.3507 119.781 25.0372C119.781 25.5668 119.919 25.9885 120.193 26.3023C120.468 26.6162 120.782 26.8515 121.135 27.0084C121.507 27.1654 121.831 27.283 122.105 27.3615L124.724 28.1264C125.999 28.4991 126.989 29.0777 127.695 29.8623C128.421 30.6468 128.784 31.5687 128.784 32.6279C128.784 33.4909 128.539 34.2656 128.049 34.9521C127.578 35.6386 126.921 36.178 126.077 36.5703C125.234 36.943 124.263 37.1293 123.165 37.1293Z" fill="black"/>
<path d="M90.3835 36.7762V21.0065H92.5901V24.0075L92.2371 23.5662C92.6686 22.6443 93.306 21.9284 94.1494 21.4184C95.0125 20.9085 95.9539 20.6535 96.9739 20.6535C98.1899 20.6535 99.2883 20.9967 100.269 21.6832C101.25 22.3697 101.946 23.2622 102.358 24.3605L101.74 24.39C102.132 23.1739 102.809 22.252 103.77 21.6244C104.751 20.9771 105.83 20.6535 107.006 20.6535C108.066 20.6535 109.037 20.9085 109.919 21.4184C110.821 21.9284 111.537 22.6345 112.067 23.5368C112.616 24.4194 112.891 25.4197 112.891 26.5377V36.7762H110.684V27.3909C110.684 26.4298 110.508 25.6158 110.155 24.949C109.821 24.2821 109.36 23.7721 108.772 23.4191C108.183 23.0464 107.507 22.8601 106.742 22.8601C105.996 22.8601 105.32 23.0464 104.712 23.4191C104.104 23.7721 103.623 24.2919 103.27 24.9784C102.917 25.6453 102.74 26.4494 102.74 27.3909V36.7762H100.534V27.3909C100.534 26.4298 100.357 25.6158 100.004 24.949C99.6708 24.2821 99.2099 23.7721 98.6215 23.4191C98.033 23.0464 97.3563 22.8601 96.5914 22.8601C95.8265 22.8601 95.14 23.0464 94.5319 23.4191C93.9435 23.7721 93.4728 24.2919 93.1197 24.9784C92.7667 25.6453 92.5901 26.4494 92.5901 27.3909V36.7762H90.3835Z" fill="black"/>
<path d="M77.9007 37.1293C76.4101 37.1293 75.0567 36.7762 73.8406 36.0701C72.6245 35.3444 71.6537 34.3637 70.9279 33.128C70.2218 31.8727 69.8688 30.4507 69.8688 28.862C69.8688 27.2928 70.2218 25.8904 70.9279 24.6548C71.634 23.4191 72.5853 22.4482 73.7818 21.7421C74.9978 21.0163 76.3708 20.6535 77.9007 20.6535C79.4306 20.6535 80.7938 21.0065 81.9903 21.7126C83.2063 22.4188 84.1576 23.3896 84.8441 24.6253C85.5502 25.861 85.9033 27.2732 85.9033 28.862C85.9033 30.4703 85.5404 31.9021 84.8147 33.1574C84.089 34.3931 83.1181 35.364 81.902 36.0701C80.7055 36.7762 79.3718 37.1293 77.9007 37.1293ZM77.9007 34.9227C78.9599 34.9227 79.9112 34.6579 80.7546 34.1283C81.6176 33.5988 82.2943 32.873 82.7846 31.9512C83.2946 31.0293 83.5496 29.9996 83.5496 28.862C83.5496 27.7244 83.2946 26.7044 82.7846 25.8022C82.2943 24.8999 81.6176 24.184 80.7546 23.6544C79.9112 23.1249 78.9599 22.8601 77.9007 22.8601C76.8416 22.8601 75.8805 23.1249 75.0175 23.6544C74.1741 24.184 73.4974 24.8999 72.9874 25.8022C72.4774 26.7044 72.2225 27.7244 72.2225 28.862C72.2225 29.9996 72.4774 31.0293 72.9874 31.9512C73.4974 32.873 74.1741 33.5988 75.0175 34.1283C75.8805 34.6579 76.8416 34.9227 77.9007 34.9227Z" fill="black"/>
<path d="M58.0338 37.1293C56.5431 37.1293 55.1898 36.7762 53.9737 36.0701C52.7576 35.3444 51.7867 34.3637 51.061 33.128C50.3549 31.8727 50.0018 30.4507 50.0018 28.862C50.0018 27.2928 50.3549 25.8904 51.061 24.6548C51.7671 23.4191 52.7184 22.4482 53.9148 21.7421C55.1309 21.0163 56.5039 20.6535 58.0338 20.6535C59.5637 20.6535 60.9269 21.0065 62.1233 21.7126C63.3394 22.4188 64.2907 23.3896 64.9772 24.6253C65.6833 25.861 66.0363 27.2732 66.0363 28.862C66.0363 30.4703 65.6735 31.9021 64.9478 33.1574C64.222 34.3931 63.2511 35.364 62.0351 36.0701C60.8386 36.7762 59.5048 37.1293 58.0338 37.1293ZM58.0338 34.9227C59.0929 34.9227 60.0442 34.6579 60.8876 34.1283C61.7507 33.5988 62.4273 32.873 62.9177 31.9512C63.4277 31.0293 63.6826 29.9996 63.6826 28.862C63.6826 27.7244 63.4277 26.7044 62.9177 25.8022C62.4273 24.8999 61.7507 24.184 60.8876 23.6544C60.0442 23.1249 59.0929 22.8601 58.0338 22.8601C56.9746 22.8601 56.0135 23.1249 55.1505 23.6544C54.3071 24.184 53.6304 24.8999 53.1205 25.8022C52.6105 26.7044 52.3555 27.7244 52.3555 28.862C52.3555 29.9996 52.6105 31.0293 53.1205 31.9512C53.6304 32.873 54.3071 33.5988 55.1505 34.1283C56.0135 34.6579 56.9746 34.9227 58.0338 34.9227Z" fill="black"/>
<path d="M40.1195 36.7764V21.0067H42.3261V23.5957L42.0319 23.2133C42.4045 22.4679 42.9635 21.8795 43.7089 21.448C44.4738 21.0165 45.3957 20.8007 46.4745 20.8007H47.4748V23.0073H46.092C44.9544 23.0073 44.0423 23.3604 43.3558 24.0665C42.6693 24.7726 42.3261 25.7729 42.3261 27.0674V36.7764H40.1195Z" fill="black"/>
<path d="M28.7825 37.1295C27.1741 37.1295 25.7227 36.7666 24.4282 36.0409C23.1532 35.2955 22.1333 34.2854 21.3684 33.0105C20.623 31.7356 20.2504 30.3038 20.2504 28.715C20.2504 27.1263 20.623 25.7043 21.3684 24.449C22.1137 23.1741 23.1336 22.1737 24.4282 21.448C25.7227 20.7223 27.1741 20.3594 28.7825 20.3594C29.9789 20.3594 31.0871 20.5654 32.1071 20.9773C33.127 21.3892 33.9998 21.9678 34.7255 22.7131C35.4513 23.4388 35.971 24.3019 36.2849 25.3022L32.4601 26.9498C32.1855 26.1456 31.7148 25.5081 31.0479 25.0374C30.4006 24.5667 29.6455 24.3313 28.7825 24.3313C28.0175 24.3313 27.331 24.5176 26.723 24.8903C26.1346 25.263 25.6638 25.7827 25.3108 26.4496C24.9774 27.1165 24.8106 27.8814 24.8106 28.7444C24.8106 29.6075 24.9774 30.3724 25.3108 31.0393C25.6638 31.7062 26.1346 32.2259 26.723 32.5986C27.331 32.9713 28.0175 33.1576 28.7825 33.1576C29.6651 33.1576 30.4301 32.9222 31.0773 32.4515C31.7246 31.9808 32.1855 31.3433 32.4601 30.5391L36.2849 32.2161C35.9907 33.1576 35.4807 34.001 34.755 34.7464C34.0292 35.4917 33.1564 36.0801 32.1365 36.5116C31.1166 36.9235 29.9986 37.1295 28.7825 37.1295Z" fill="#FFBE06"/>
<path d="M8.79875 46.3587C7.52444 46.3587 6.34116 46.1463 5.24891 45.7216C4.15665 45.2968 3.21609 44.7001 2.42724 43.9315C1.21114 42.7474 0.837704 41.4077 0.722778 39.7748H5.24891C5.24891 40.6547 5.65345 41.1503 6.34116 41.5952C7.02888 42.0402 7.84808 42.2627 8.79875 42.2627C9.54714 42.2627 10.1944 42.1211 10.7405 41.838C11.2867 41.575 11.7013 41.1806 11.9845 40.6547C12.2879 40.1288 12.4396 39.5119 12.4396 38.8039V32.1039L13.3195 33.1961C12.7531 34.1266 12.025 34.8244 11.135 35.2896C10.245 35.7346 9.20329 35.9571 8.00989 35.9571C6.47264 35.9571 5.0972 35.6133 3.88358 34.9255C2.66996 34.2176 1.71929 33.2568 1.03158 32.0432C0.343859 30.8093 0 29.4137 0 27.8562C0 26.2987 0.343859 24.9233 1.03158 23.7299C1.71929 22.5163 2.65985 21.5656 3.85324 20.8779C5.04664 20.1902 6.40185 19.8463 7.91887 19.8463C9.11226 19.8463 10.154 20.089 11.0439 20.5745C11.9339 21.0397 12.6924 21.7578 13.3195 22.7287L12.743 23.8209V20.2104H16.9907V38.8039C16.9907 40.2603 16.6367 41.5548 15.9288 42.6875C15.2208 43.8404 14.2499 44.7405 13.0161 45.3878C11.8025 46.0351 10.3967 46.3587 8.79875 46.3587ZM8.64704 31.8308C9.41567 31.8308 10.0832 31.669 10.6495 31.3454C11.2159 31.0217 11.6508 30.5666 11.9542 29.98C12.2778 29.3935 12.4396 28.7057 12.4396 27.9169C12.4396 27.128 12.2778 26.4403 11.9542 25.8537C11.6305 25.2469 11.1855 24.7817 10.6192 24.4581C10.0528 24.1142 9.39544 23.9423 8.64704 23.9423C7.87842 23.9423 7.1907 24.1142 6.58389 24.4581C5.99731 24.7817 5.53208 25.2469 5.18823 25.8537C4.86459 26.4403 4.70278 27.128 4.70278 27.9169C4.70278 28.6855 4.86459 29.3631 5.18823 29.9497C5.53208 30.5363 5.99731 31.0015 6.58389 31.3454C7.1907 31.669 7.87842 31.8308 8.64704 31.8308Z" fill="#10D1C1"/>
<path d="M37.5487 45.3734L37.6324 44.7758H38.0388L37.9551 45.3734H37.5487ZM40.3839 45.3734L40.4676 44.7758H40.8739L40.7903 45.3734H40.3839ZM43.2191 45.3734L43.3027 44.7758H43.7091L43.6255 45.3734H43.2191ZM49.6701 45.4451C49.3912 45.4451 49.1402 45.3794 48.9171 45.2479C48.6979 45.1125 48.5246 44.9292 48.3971 44.6981C48.2696 44.467 48.2059 44.2021 48.2059 43.9033C48.2059 43.6563 48.2497 43.4252 48.3374 43.21C48.425 42.9949 48.5445 42.8057 48.6959 42.6423C48.8513 42.479 49.0306 42.3535 49.2338 42.2658C49.437 42.1742 49.6561 42.1284 49.8912 42.1284C50.0904 42.1284 50.2736 42.1622 50.441 42.2299C50.6123 42.2977 50.7577 42.3913 50.8772 42.5108C51.0007 42.6264 51.0944 42.7598 51.1581 42.9112L50.8354 43.0666C50.7517 42.8833 50.6282 42.7399 50.4649 42.6363C50.3015 42.5288 50.1103 42.475 49.8912 42.475C49.6402 42.475 49.4151 42.5407 49.2159 42.6722C49.0167 42.8037 48.8613 42.979 48.7497 43.1981C48.6382 43.4132 48.5824 43.6503 48.5824 43.9093C48.5824 44.1483 48.6302 44.3575 48.7258 44.5367C48.8254 44.712 48.9589 44.8495 49.1262 44.9491C49.2936 45.0447 49.4808 45.0925 49.688 45.0925C49.9111 45.0925 50.1123 45.0387 50.2916 44.9312C50.4748 44.8196 50.6203 44.6702 50.7278 44.483L51.0386 44.6682C50.9549 44.8156 50.8434 44.9491 50.7039 45.0686C50.5685 45.1842 50.4131 45.2758 50.2378 45.3435C50.0625 45.4113 49.8732 45.4451 49.6701 45.4451ZM54.6016 45.4451C54.3148 45.4451 54.0558 45.3794 53.8247 45.2479C53.5977 45.1125 53.4164 44.9272 53.2809 44.6921C53.1494 44.4571 53.0837 44.1901 53.0837 43.8913C53.0837 43.6483 53.1255 43.4212 53.2092 43.21C53.2969 42.9949 53.4184 42.8076 53.5737 42.6483C53.7331 42.4849 53.9164 42.3574 54.1236 42.2658C54.3307 42.1742 54.5538 42.1284 54.7929 42.1284C55.0877 42.1284 55.3487 42.1941 55.5758 42.3256C55.8029 42.457 55.9821 42.6403 56.1136 42.8754C56.2451 43.1065 56.3108 43.3714 56.3108 43.6702C56.3108 43.9132 56.267 44.1423 56.1794 44.3575C56.0917 44.5726 55.9682 44.7618 55.8088 44.9252C55.6535 45.0885 55.4722 45.216 55.265 45.3077C55.0578 45.3993 54.8367 45.4451 54.6016 45.4451ZM54.5957 45.0925C54.8467 45.0925 55.0718 45.0268 55.271 44.8953C55.4742 44.7638 55.6335 44.5905 55.7491 44.3754C55.8686 44.1563 55.9284 43.9192 55.9284 43.6642C55.9284 43.4371 55.8786 43.2339 55.779 43.0547C55.6833 42.8754 55.5499 42.7359 55.3785 42.6363C55.2112 42.5327 55.018 42.4809 54.7989 42.4809C54.5518 42.4809 54.3267 42.5467 54.1236 42.6782C53.9244 42.8057 53.765 42.977 53.6455 43.1921C53.5259 43.4033 53.4662 43.6383 53.4662 43.8973C53.4662 44.1244 53.514 44.3296 53.6096 44.5128C53.7092 44.6921 53.8427 44.8336 54.01 44.9371C54.1813 45.0407 54.3765 45.0925 54.5957 45.0925ZM58.1403 45.3734L58.5826 42.2001H58.9411L58.8575 42.8216L58.8037 42.726C58.9113 42.5427 59.0587 42.3973 59.2459 42.2897C59.4332 42.1821 59.6324 42.1284 59.8435 42.1284C60.0905 42.1284 60.3057 42.2001 60.489 42.3435C60.6762 42.4869 60.7937 42.6841 60.8416 42.9351L60.734 42.9232C60.8336 42.6722 60.9929 42.477 61.2121 42.3375C61.4312 42.1981 61.6623 42.1284 61.9053 42.1284C62.1205 42.1284 62.3097 42.1801 62.473 42.2837C62.6404 42.3873 62.7659 42.5327 62.8495 42.72C62.9372 42.9072 62.9631 43.1244 62.9272 43.3714L62.6523 45.3734H62.2938L62.5687 43.3893C62.5966 43.1981 62.5826 43.0347 62.5268 42.8993C62.4711 42.7638 62.3854 42.6602 62.2699 42.5885C62.1543 42.5168 62.0189 42.4809 61.8635 42.4809C61.6961 42.4809 61.5388 42.5228 61.3914 42.6064C61.2439 42.6861 61.1224 42.7977 61.0268 42.9411C60.9312 43.0845 60.8694 43.2499 60.8416 43.4371L60.5726 45.3734H60.2141L60.489 43.3893C60.5168 43.1981 60.5029 43.0347 60.4471 42.8993C60.3913 42.7638 60.3057 42.6602 60.1902 42.5885C60.0786 42.5168 59.9451 42.4809 59.7897 42.4809C59.6144 42.4809 59.4531 42.5248 59.3057 42.6124C59.1623 42.6961 59.0427 42.8136 58.9471 42.965C58.8515 43.1124 58.7897 43.2818 58.7618 43.473L58.4989 45.3734H58.1403ZM65.0975 45.3734L65.4919 42.5407H64.8525L64.9003 42.2001H65.5397L65.5816 41.9072C65.6174 41.6762 65.6911 41.4829 65.8027 41.3275C65.9143 41.1682 66.0497 41.0487 66.2091 40.969C66.3684 40.8893 66.5358 40.8495 66.7111 40.8495C66.7669 40.8495 66.8167 40.8514 66.8605 40.8554C66.9083 40.8594 66.9501 40.8654 66.986 40.8734L66.968 41.202C66.9362 41.1941 66.8983 41.1901 66.8545 41.1901C66.8147 41.1861 66.7848 41.1841 66.7649 41.1841C66.5497 41.1841 66.3684 41.2439 66.221 41.3634C66.0736 41.4829 65.98 41.6722 65.9401 41.9311L65.9043 42.2001H66.6931L66.6453 42.5407H65.8565L65.4621 45.3734H65.0975ZM69.7428 45.4451C69.456 45.4451 69.197 45.3794 68.9659 45.2479C68.7388 45.1125 68.5575 44.9272 68.4221 44.6921C68.2906 44.4571 68.2249 44.1901 68.2249 43.8913C68.2249 43.6483 68.2667 43.4212 68.3504 43.21C68.438 42.9949 68.5595 42.8076 68.7149 42.6483C68.8743 42.4849 69.0575 42.3574 69.2647 42.2658C69.4719 42.1742 69.695 42.1284 69.934 42.1284C70.2289 42.1284 70.4898 42.1941 70.7169 42.3256C70.944 42.457 71.1233 42.6403 71.2548 42.8754C71.3863 43.1065 71.452 43.3714 71.452 43.6702C71.452 43.9132 71.4082 44.1423 71.3205 44.3575C71.2329 44.5726 71.1094 44.7618 70.95 44.9252C70.7946 45.0885 70.6133 45.216 70.4062 45.3077C70.199 45.3993 69.9779 45.4451 69.7428 45.4451ZM69.7368 45.0925C69.9878 45.0925 70.2129 45.0268 70.4121 44.8953C70.6153 44.7638 70.7747 44.5905 70.8902 44.3754C71.0098 44.1563 71.0695 43.9192 71.0695 43.6642C71.0695 43.4371 71.0197 43.2339 70.9201 43.0547C70.8245 42.8754 70.691 42.7359 70.5197 42.6363C70.3524 42.5327 70.1591 42.4809 69.94 42.4809C69.693 42.4809 69.4679 42.5467 69.2647 42.6782C69.0655 42.8057 68.9061 42.977 68.7866 43.1921C68.6671 43.4033 68.6073 43.6383 68.6073 43.8973C68.6073 44.1244 68.6551 44.3296 68.7508 44.5128C68.8504 44.6921 68.9838 44.8336 69.1512 44.9371C69.3225 45.0407 69.5177 45.0925 69.7368 45.0925ZM73.2815 45.3734L73.7237 42.2001H74.0883L74.0046 42.7917L73.9389 42.7379C74.0345 42.5586 74.1719 42.4172 74.3512 42.3136C74.5345 42.21 74.7397 42.1582 74.9668 42.1582H75.164L75.1162 42.5168H74.8711C74.6122 42.5168 74.397 42.6005 74.2257 42.7678C74.0584 42.9351 73.9528 43.1662 73.909 43.461L73.6401 45.3734H73.2815ZM77.679 45.4093C77.4081 45.4093 77.2089 45.3336 77.0814 45.1822C76.9579 45.0268 76.9161 44.8057 76.9559 44.5188L77.2308 42.5407H76.6332L76.687 42.2001H76.8961C77.0157 42.2001 77.1133 42.1622 77.189 42.0865C77.2686 42.0108 77.3165 41.9112 77.3324 41.7877L77.3802 41.459H77.7447L77.6432 42.2001H78.3304L78.2826 42.5407H77.5953L77.3145 44.5427C77.3025 44.6304 77.3025 44.716 77.3145 44.7997C77.3264 44.8794 77.3643 44.9451 77.428 44.9969C77.4918 45.0447 77.5933 45.0686 77.7328 45.0686C77.7726 45.0686 77.8145 45.0666 77.8583 45.0626C77.9061 45.0587 77.944 45.0547 77.9718 45.0507L77.9479 45.3854C77.9041 45.3973 77.8543 45.4033 77.7985 45.4033C77.7467 45.4073 77.7069 45.4093 77.679 45.4093ZM82.0345 46.6882C81.9747 46.6882 81.9129 46.6822 81.8492 46.6702C81.7815 46.6623 81.7177 46.6463 81.658 46.6224L81.6819 46.2997C81.7337 46.3077 81.7874 46.3157 81.8432 46.3236C81.899 46.3316 81.9528 46.3356 82.0046 46.3356C82.14 46.3316 82.2556 46.3077 82.3512 46.2639C82.4508 46.224 82.5404 46.1583 82.6201 46.0666C82.6998 45.979 82.7815 45.8654 82.8651 45.726L83.1699 45.2061L83.1341 45.5407L82.2556 42.1941H82.6381L83.3851 45.0806H83.2297L84.8074 42.1941H85.2257L83.2297 45.8276C83.158 45.9591 83.0663 46.0905 82.9548 46.222C82.8472 46.3575 82.7177 46.469 82.5663 46.5567C82.4149 46.6443 82.2377 46.6882 82.0345 46.6882ZM88.1207 45.4451C87.8338 45.4451 87.5748 45.3794 87.3438 45.2479C87.1167 45.1125 86.9354 44.9272 86.7999 44.6921C86.6685 44.4571 86.6027 44.1901 86.6027 43.8913C86.6027 43.6483 86.6446 43.4212 86.7282 43.21C86.8159 42.9949 86.9374 42.8076 87.0928 42.6483C87.2521 42.4849 87.4354 42.3574 87.6426 42.2658C87.8497 42.1742 88.0729 42.1284 88.3119 42.1284C88.6067 42.1284 88.8677 42.1941 89.0948 42.3256C89.3219 42.457 89.5012 42.6403 89.6326 42.8754C89.7641 43.1065 89.8299 43.3714 89.8299 43.6702C89.8299 43.9132 89.786 44.1423 89.6984 44.3575C89.6107 44.5726 89.4872 44.7618 89.3279 44.9252C89.1725 45.0885 88.9912 45.216 88.784 45.3077C88.5768 45.3993 88.3557 45.4451 88.1207 45.4451ZM88.1147 45.0925C88.3657 45.0925 88.5908 45.0268 88.79 44.8953C88.9932 44.7638 89.1526 44.5905 89.2681 44.3754C89.3876 44.1563 89.4474 43.9192 89.4474 43.6642C89.4474 43.4371 89.3976 43.2339 89.298 43.0547C89.2024 42.8754 89.0689 42.7359 88.8976 42.6363C88.7302 42.5327 88.537 42.4809 88.3179 42.4809C88.0709 42.4809 87.8458 42.5467 87.6426 42.6782C87.4434 42.8057 87.284 42.977 87.1645 43.1921C87.045 43.4033 86.9852 43.6383 86.9852 43.8973C86.9852 44.1244 87.033 44.3296 87.1286 44.5128C87.2282 44.6921 87.3617 44.8336 87.529 44.9371C87.7003 45.0407 87.8956 45.0925 88.1147 45.0925ZM92.8008 45.4451C92.5817 45.4451 92.3864 45.3933 92.2151 45.2897C92.0438 45.1862 91.9163 45.0387 91.8327 44.8475C91.749 44.6523 91.7251 44.4212 91.7609 44.1543L92.0418 42.2001H92.4004L92.1195 44.1782C92.0916 44.3734 92.1056 44.5407 92.1613 44.6802C92.2211 44.8156 92.3107 44.9192 92.4303 44.9909C92.5498 45.0587 92.6912 45.0925 92.8546 45.0925C93.0418 45.0925 93.2092 45.0507 93.3566 44.967C93.504 44.8794 93.6255 44.7599 93.7211 44.6085C93.8167 44.4571 93.8785 44.2857 93.9064 44.0945L94.1753 42.2001H94.5339L94.0916 45.3734H93.7331L93.8167 44.728L93.9064 44.7698C93.8068 44.977 93.6574 45.1423 93.4582 45.2658C93.263 45.3854 93.0438 45.4451 92.8008 45.4451ZM100.016 45.4451C99.7288 45.4451 99.4739 45.3774 99.2507 45.2419C99.0316 45.1065 98.8603 44.9232 98.7368 44.6921C98.6133 44.4571 98.5515 44.1941 98.5515 43.9033C98.5515 43.6602 98.5934 43.4331 98.677 43.222C98.7607 43.0068 98.8782 42.8176 99.0296 42.6543C99.181 42.4909 99.3583 42.3634 99.5615 42.2718C99.7647 42.1762 99.9858 42.1284 100.225 42.1284C100.524 42.1284 100.785 42.2001 101.008 42.3435C101.235 42.4829 101.4 42.6762 101.504 42.9232L101.456 43.0009L101.755 40.8495H102.119L101.486 45.3734H101.127L101.235 44.5666L101.354 44.6563C101.227 44.9033 101.042 45.0965 100.799 45.236C100.56 45.3754 100.299 45.4451 100.016 45.4451ZM100.028 45.0866C100.279 45.0866 100.504 45.0208 100.703 44.8893C100.902 44.7579 101.06 44.5846 101.175 44.3694C101.291 44.1543 101.348 43.9192 101.348 43.6642C101.348 43.4292 101.299 43.224 101.199 43.0487C101.099 42.8734 100.966 42.7359 100.799 42.6363C100.631 42.5367 100.442 42.4869 100.231 42.4869C99.9838 42.4869 99.7607 42.5527 99.5615 42.6841C99.3663 42.8116 99.2129 42.9849 99.1013 43.2041C98.9898 43.4192 98.934 43.6563 98.934 43.9152C98.934 44.1383 98.9798 44.3395 99.0715 44.5188C99.1631 44.6941 99.2906 44.8336 99.4539 44.9371C99.6213 45.0368 99.8125 45.0866 100.028 45.0866ZM105.256 45.4451C104.969 45.4451 104.712 45.3774 104.485 45.2419C104.262 45.1065 104.087 44.9232 103.959 44.6921C103.832 44.4571 103.768 44.1921 103.768 43.8973C103.768 43.6583 103.808 43.4331 103.888 43.222C103.971 43.0068 104.087 42.8176 104.234 42.6543C104.386 42.4909 104.561 42.3634 104.76 42.2718C104.959 42.1762 105.176 42.1284 105.411 42.1284C105.69 42.1284 105.931 42.1921 106.135 42.3196C106.338 42.4471 106.495 42.6184 106.607 42.8335C106.718 43.0447 106.774 43.2778 106.774 43.5328C106.774 43.5925 106.768 43.6563 106.756 43.724C106.748 43.7917 106.74 43.8495 106.732 43.8973H103.977L104.001 43.5686H106.547L106.38 43.6881C106.423 43.4571 106.407 43.2499 106.332 43.0666C106.256 42.8794 106.137 42.7319 105.973 42.6244C105.814 42.5168 105.627 42.463 105.411 42.463C105.152 42.463 104.927 42.5288 104.736 42.6602C104.545 42.7917 104.395 42.971 104.288 43.1981C104.184 43.4252 104.133 43.6782 104.133 43.9571C104.133 44.1842 104.182 44.3854 104.282 44.5607C104.382 44.732 104.515 44.8674 104.682 44.967C104.854 45.0626 105.045 45.1105 105.256 45.1105C105.487 45.1105 105.692 45.0547 105.872 44.9431C106.055 44.8316 106.206 44.6842 106.326 44.5009L106.625 44.6742C106.541 44.8216 106.429 44.9551 106.29 45.0746C106.154 45.1901 105.997 45.2818 105.818 45.3495C105.643 45.4133 105.455 45.4451 105.256 45.4451ZM109.726 45.4451C109.531 45.4451 109.35 45.4113 109.183 45.3435C109.015 45.2718 108.872 45.1742 108.752 45.0507C108.637 44.9232 108.551 44.7758 108.495 44.6085L108.818 44.483C108.894 44.6822 109.011 44.8375 109.171 44.9491C109.334 45.0567 109.523 45.1105 109.738 45.1105C109.966 45.1105 110.151 45.0527 110.294 44.9371C110.438 44.8216 110.509 44.6762 110.509 44.5009C110.509 44.3814 110.47 44.2818 110.39 44.2021C110.31 44.1184 110.187 44.0547 110.019 44.0108L109.535 43.8734C109.296 43.8057 109.117 43.7061 108.997 43.5746C108.878 43.4431 108.818 43.2818 108.818 43.0905C108.818 42.9112 108.866 42.7499 108.962 42.6064C109.061 42.459 109.193 42.3435 109.356 42.2598C109.523 42.1722 109.711 42.1284 109.918 42.1284C110.189 42.1284 110.426 42.1981 110.629 42.3375C110.832 42.477 110.964 42.6622 111.023 42.8933L110.695 43.0188C110.631 42.8395 110.531 42.7021 110.396 42.6064C110.26 42.5068 110.099 42.457 109.912 42.457C109.705 42.457 109.531 42.5148 109.392 42.6304C109.256 42.7419 109.189 42.8814 109.189 43.0487C109.189 43.1642 109.224 43.2618 109.296 43.3415C109.368 43.4172 109.479 43.477 109.631 43.5208L110.145 43.6702C110.364 43.73 110.541 43.8276 110.677 43.963C110.816 44.0985 110.886 44.2758 110.886 44.4949C110.886 44.6742 110.834 44.8356 110.73 44.979C110.631 45.1224 110.493 45.236 110.318 45.3196C110.143 45.4033 109.946 45.4451 109.726 45.4451ZM114.376 45.4451C114.089 45.4451 113.832 45.3774 113.605 45.2419C113.381 45.1065 113.206 44.9232 113.079 44.6921C112.951 44.4571 112.887 44.1921 112.887 43.8973C112.887 43.6583 112.927 43.4331 113.007 43.222C113.091 43.0068 113.206 42.8176 113.354 42.6543C113.505 42.4909 113.68 42.3634 113.88 42.2718C114.079 42.1762 114.296 42.1284 114.531 42.1284C114.81 42.1284 115.051 42.1921 115.254 42.3196C115.457 42.4471 115.615 42.6184 115.726 42.8335C115.838 43.0447 115.893 43.2778 115.893 43.5328C115.893 43.5925 115.887 43.6563 115.876 43.724C115.868 43.7917 115.86 43.8495 115.852 43.8973H113.097L113.121 43.5686H115.666L115.499 43.6881C115.543 43.4571 115.527 43.2499 115.451 43.0666C115.376 42.8794 115.256 42.7319 115.093 42.6244C114.933 42.5168 114.746 42.463 114.531 42.463C114.272 42.463 114.047 42.5288 113.856 42.6602C113.664 42.7917 113.515 42.971 113.407 43.1981C113.304 43.4252 113.252 43.6782 113.252 43.9571C113.252 44.1842 113.302 44.3854 113.401 44.5607C113.501 44.732 113.634 44.8674 113.802 44.967C113.973 45.0626 114.164 45.1105 114.376 45.1105C114.607 45.1105 114.812 45.0547 114.991 44.9431C115.174 44.8316 115.326 44.6842 115.445 44.5009L115.744 44.6742C115.66 44.8216 115.549 44.9551 115.409 45.0746C115.274 45.1901 115.117 45.2818 114.937 45.3495C114.762 45.4133 114.575 45.4451 114.376 45.4451ZM117.711 45.3734L118.153 42.2001H118.517L118.434 42.7917L118.368 42.7379C118.463 42.5586 118.601 42.4172 118.78 42.3136C118.964 42.21 119.169 42.1582 119.396 42.1582H119.593L119.545 42.5168H119.3C119.041 42.5168 118.826 42.6005 118.655 42.7678C118.487 42.9351 118.382 43.1662 118.338 43.461L118.069 45.3734H117.711ZM121.797 45.3734L120.985 42.2001H121.373L122.078 45.0567H121.941L123.459 42.2001H123.883L122.162 45.3734H121.797ZM126.75 45.4451C126.464 45.4451 126.207 45.3774 125.979 45.2419C125.756 45.1065 125.581 44.9232 125.454 44.6921C125.326 44.4571 125.262 44.1921 125.262 43.8973C125.262 43.6583 125.302 43.4331 125.382 43.222C125.466 43.0068 125.581 42.8176 125.728 42.6543C125.88 42.4909 126.055 42.3634 126.254 42.2718C126.454 42.1762 126.671 42.1284 126.906 42.1284C127.185 42.1284 127.426 42.1921 127.629 42.3196C127.832 42.4471 127.989 42.6184 128.101 42.8335C128.213 43.0447 128.268 43.2778 128.268 43.5328C128.268 43.5925 128.262 43.6563 128.25 43.724C128.242 43.7917 128.234 43.8495 128.226 43.8973H125.471L125.495 43.5686H128.041L127.874 43.6881C127.918 43.4571 127.902 43.2499 127.826 43.0666C127.75 42.8794 127.631 42.7319 127.468 42.6244C127.308 42.5168 127.121 42.463 126.906 42.463C126.647 42.463 126.422 42.5288 126.23 42.6602C126.039 42.7917 125.89 42.971 125.782 43.1981C125.679 43.4252 125.627 43.6782 125.627 43.9571C125.627 44.1842 125.677 44.3854 125.776 44.5607C125.876 44.732 126.009 44.8674 126.177 44.967C126.348 45.0626 126.539 45.1105 126.75 45.1105C126.981 45.1105 127.187 45.0547 127.366 44.9431C127.549 44.8316 127.701 44.6842 127.82 44.5009L128.119 44.6742C128.035 44.8216 127.924 44.9551 127.784 45.0746C127.649 45.1901 127.491 45.2818 127.312 45.3495C127.137 45.4133 126.95 45.4451 126.75 45.4451Z" fill="black"/>
<path d="M0.49292 15.8598V11.3777L19.5019 0L36.3499 11.3777V15.8598L19.5019 4.94182L0.49292 15.8598Z" fill="#660ED1"/>
</svg>
