<svg width="15" height="15" viewBox="0 0 15 15" fill="none" xmlns="http://www.w3.org/2000/svg">
<path d="M1.25 12.5V7.5C1.25 7.16848 1.3817 6.85054 1.61612 6.61612C1.85054 6.3817 2.16848 6.25 2.5 6.25M2.5 6.25H12.5M2.5 6.25V3.75C2.5 3.41848 2.6317 3.10054 2.86612 2.86612C3.10054 2.6317 3.41848 2.5 3.75 2.5H11.25C11.5815 2.5 11.8995 2.6317 12.1339 2.86612C12.3683 3.10054 12.5 3.41848 12.5 3.75V6.25M12.5 6.25C12.8315 6.25 13.1495 6.3817 13.3839 6.61612C13.6183 6.85054 13.75 7.16848 13.75 7.5V12.5M7.5 2.5V6.25M1.25 11.25H13.75" stroke="#111111" stroke-width="1.25" stroke-linecap="round" stroke-linejoin="round"/>
</svg>
